HIERARCHY
ROOT hips
{
  OFFSET 0 10.6860622 2.3727825e-15
  CHANNELS 6 Xposition Yposition Zposition Yrotation Xrotation Zrotation
  JOINT leftUpperLeg
  {
    OFFSET 0.6642549969 -0.9402397400000004 0
    CHANNELS 3 Yrotation Xrotation Zrotation
    JOINT leftLowerLeg
    {
      OFFSET 0 -3.997221335632195 0
      CHANNELS 3 Yrotation Xrotation Zrotation
      JOINT leftFoot
      {
        OFFSET -0.13777839790000004 -4.6145792000000005 -0.22186036399999998
        CHANNELS 3 Yrotation Xrotation Zrotation
        JOINT leftToes
        {
          OFFSET -0.03777410834999995 -0.9130806927000008 0.85230013
          CHANNELS 3 Yrotation Xrotation Zrotation
          End Site
          {
            OFFSET -0.03777410834999995 -0.9130806927000008 0.85230013
          }
        }
      }
    }
  }
  JOINT rightUpperLeg
  {
    OFFSET -0.6642778626 -0.9402397400000004 0
    CHANNELS 3 Yrotation Xrotation Zrotation
    JOINT rightLowerLeg
    {
      OFFSET 0 -3.997221452859387 0
      CHANNELS 3 Yrotation Xrotation Zrotation
      JOINT rightFoot
      {
        OFFSET 0.1377926176 -4.6145792000000005 -0.22185782299999995
        CHANNELS 3 Yrotation Xrotation Zrotation
        JOINT rightToes
        {
          OFFSET 0.037780746850000047 -0.9130806927000008 0.85230167
          CHANNELS 3 Yrotation Xrotation Zrotation
          End Site
          {
            OFFSET 0.037780746850000047 -0.9130806927000008 0.85230167
          }
        }
      }
    }
  }
  JOINT spine
  {
    OFFSET 0 0.13988381660000015 0
    CHANNELS 3 Yrotation Xrotation Zrotation
    JOINT chest
    {
      OFFSET 0 0.6191039003973773 0
      CHANNELS 3 Yrotation Xrotation Zrotation
      JOINT upperChest
      {
        OFFSET 0 0.9855186130586943 0
        CHANNELS 3 Yrotation Xrotation Zrotation
        JOINT leftShoulder
        {
          OFFSET 0.1807663869 1.5087829790000005 0
          CHANNELS 3 Yrotation Xrotation Zrotation
          JOINT leftUpperArm
          {
            OFFSET 0.5985063006419806 0 0
            CHANNELS 3 Yrotation Xrotation Zrotation
            JOINT leftLowerArm
            {
              OFFSET 2.2993332369501065 0 0
              CHANNELS 3 Yrotation Xrotation Zrotation
              JOINT leftHand
              {
                OFFSET 2.395047042602395 0 0
                CHANNELS 3 Yrotation Xrotation Zrotation
                JOINT leftIndexProximal
                {
                  OFFSET 0.5766295810000004 0.04556643899499946 0.17265095988184
                  CHANNELS 3 Yrotation Xrotation Zrotation
                  JOINT leftIndexIntermediate
                  {
                    OFFSET 0.2957229000000008 -0.019352197700001517 -0.007932640616999987
                    CHANNELS 3 Yrotation Xrotation Zrotation
                    JOINT leftIndexDistal
                    {
                      OFFSET 0.19008243099999922 -0.012484908149998475 -0.002786250786000012
                      CHANNELS 3 Yrotation Xrotation Zrotation
                      End Site
                      {
                        OFFSET 0.19008243099999922 -0.012484908149998475 -0.002786250786000012
                      }
                    }
                  }
                }
                JOINT leftMiddleProximal
                {
                  OFFSET 0.5834975091000001 0.0524350405149987 0.02204081888183999
                  CHANNELS 3 Yrotation Xrotation Zrotation
                  JOINT leftMiddleIntermediate
                  {
                    OFFSET 0.33880573540000003 -0.019871473270000717 -0.00000971183179999946
                    CHANNELS 3 Yrotation Xrotation Zrotation
                    JOINT leftMiddleDistal
                    {
                      OFFSET 0.20676022730000088 -0.012221336379999448 0.0001471936708000235
                      CHANNELS 3 Yrotation Xrotation Zrotation
                      End Site
                      {
                        OFFSET 0.20676022730000088 -0.012221336379999448 0.0001471936708000235
                      }
                    }
                  }
                }
                JOINT leftLittleProximal
                {
                  OFFSET 0.5344154683999995 -0.012880921405001189 -0.24414037221816004
                  CHANNELS 3 Yrotation Xrotation Zrotation
                  JOINT leftLittleIntermediate
                  {
                    OFFSET 0.21758961730000093 -0.011650919939999227 0.011893592810000034
                    CHANNELS 3 Yrotation Xrotation Zrotation
                    JOINT leftLittleDistal
                    {
                      OFFSET 0.1475273964999999 -0.008152365682999818 0.006001092492999946
                      CHANNELS 3 Yrotation Xrotation Zrotation
                      End Site
                      {
                        OFFSET 0.1475273964999999 -0.008152365682999818 0.006001092492999946
                      }
                    }
                  }
                }
                JOINT leftRingProximal
                {
                  OFFSET 0.5799399463000003 0.026911854694997794 -0.12150566991816003
                  CHANNELS 3 Yrotation Xrotation Zrotation
                  JOINT leftRingIntermediate
                  {
                    OFFSET 0.26167887460000006 -0.013480186499999602 0.010996293000000053
                    CHANNELS 3 Yrotation Xrotation Zrotation
                    JOINT leftRingDistal
                    {
                      OFFSET 0.17667108799999987 -0.008990287899999228 0.0055541023999999065
                      CHANNELS 3 Yrotation Xrotation Zrotation
                      End Site
                      {
                        OFFSET 0.17667108799999987 -0.008990287899999228 0.0055541023999999065
                      }
                    }
                  }
                }
                JOINT leftThumbProximal
                {
                  OFFSET 0.11018806699999972 -0.09448718900500053 0.17047963138184
                  CHANNELS 3 Yrotation Xrotation Zrotation
                  JOINT leftThumbIntermediate
                  {
                    OFFSET 0.31062601459999983 -0.08126270900000132 0.15443142000000007
                    CHANNELS 3 Yrotation Xrotation Zrotation
                    JOINT leftThumbDistal
                    {
                      OFFSET 0.21627175790000086 -0.08833193599999878 0.018771167799999988
                      CHANNELS 3 Yrotation Xrotation Zrotation
                      End Site
                      {
                        OFFSET 0.21627175790000086 -0.08833193599999878 0.018771167799999988
                      }
                    }
                  }
                }
              }
            }
          }
        }
        JOINT neck
        {
          OFFSET 0 1.5463305265074576 0
          CHANNELS 3 Yrotation Xrotation Zrotation
          JOINT head
          {
            OFFSET 0 0.8456443600000344 0
            CHANNELS 3 Yrotation Xrotation Zrotation
            JOINT leftEye
            {
              OFFSET 0.30408573140000006 0.5104519199999995 0.1276382305
              CHANNELS 3 Yrotation Xrotation Zrotation
              End Site
              {
                OFFSET 0.30408573140000006 0.5104519199999995 0.1276382305
              }
            }
            JOINT rightEye
            {
              OFFSET -0.30409491089999996 0.5104519199999995 0.1276379445
              CHANNELS 3 Yrotation Xrotation Zrotation
              End Site
              {
                OFFSET -0.30409491089999996 0.5104519199999995 0.1276379445
              }
            }
            JOINT jaw
            {
              OFFSET -3.155239131000001e-7 -0.11984121820000082 0.60178107
              CHANNELS 3 Yrotation Xrotation Zrotation
              End Site
              {
                OFFSET -3.155239131000001e-7 -0.11984121820000082 0.60178107
              }
            }
          }
        }
        JOINT rightShoulder
        {
          OFFSET -0.1807303465 1.5087829790000005 0
          CHANNELS 3 Yrotation Xrotation Zrotation
          JOINT rightUpperArm
          {
            OFFSET -0.5985063796536958 0 0
            CHANNELS 3 Yrotation Xrotation Zrotation
            JOINT rightLowerArm
            {
              OFFSET -2.2993322059002854 0 0
              CHANNELS 3 Yrotation Xrotation Zrotation
              JOINT rightHand
              {
                OFFSET -2.395045314457259 0 0
                CHANNELS 3 Yrotation Xrotation Zrotation
                JOINT rightIndexProximal
                {
                  OFFSET -0.5764487688300002 0.0441371204405987 0.17361932004999997
                  CHANNELS 3 Yrotation Xrotation Zrotation
                  JOINT rightIndexIntermediate
                  {
                    OFFSET -0.29573011380000047 -0.01934826376999843 -0.007698921482999974
                    CHANNELS 3 Yrotation Xrotation Zrotation
                    JOINT rightIndexDistal
                    {
                      OFFSET -0.19008373999999884 -0.012503266380000655 -0.0026365778999999897
                      CHANNELS 3 Yrotation Xrotation Zrotation
                      End Site
                      {
                        OFFSET -0.19008373999999884 -0.012503266380000655 -0.0026365778999999897
                      }
                    }
                  }
                }
                JOINT rightMiddleProximal
                {
                  OFFSET -0.5834852037300005 0.05211639405060153 0.02307162440000001
                  CHANNELS 3 Yrotation Xrotation Zrotation
                  JOINT rightMiddleIntermediate
                  {
                    OFFSET -0.33880114510000003 -0.019952774050000954 0.0002455003561999819
                    CHANNELS 3 Yrotation Xrotation Zrotation
                    JOINT rightMiddleDistal
                    {
                      OFFSET -0.20675694929999955 -0.012273788999999091 0.00030209124000002766
                      CHANNELS 3 Yrotation Xrotation Zrotation
                      End Site
                      {
                        OFFSET -0.20675694929999955 -0.012273788999999091 0.00030209124000002766
                      }
                    }
                  }
                }
                JOINT rightLittleProximal
                {
                  OFFSET -0.5346811737299992 -0.011214256288399227 -0.24363941305000003
                  CHANNELS 3 Yrotation Xrotation Zrotation
                  JOINT rightLittleIntermediate
                  {
                    OFFSET -0.21757715980000092 -0.011771559690000988 0.01201554387
                    CHANNELS 3 Yrotation Xrotation Zrotation
                    JOINT rightLittleDistal
                    {
                      OFFSET -0.1475201849000004 -0.00822055339600003 0.006082065407000015
                      CHANNELS 3 Yrotation Xrotation Zrotation
                      End Site
                      {
                        OFFSET -0.1475201849000004 -0.00822055339600003 0.006082065407000015
                      }
                    }
                  }
                }
                JOINT rightRingProximal
                {
                  OFFSET -0.5800810755299999 0.027657985680600072 -0.12066365025000003
                  CHANNELS 3 Yrotation Xrotation Zrotation
                  JOINT rightRingIntermediate
                  {
                    OFFSET -0.26166445029999974 -0.013623118409999302 0.011164098990000045
                    CHANNELS 3 Yrotation Xrotation Zrotation
                    JOINT rightRingDistal
                    {
                      OFFSET -0.17666387530000027 -0.009072900100000503 0.005668185599999959
                      CHANNELS 3 Yrotation Xrotation Zrotation
                      End Site
                      {
                        OFFSET -0.17666387530000027 -0.009072900100000503 0.005668185599999959
                      }
                    }
                  }
                }
                JOINT rightThumbProximal
                {
                  OFFSET -0.10997596379000074 -0.09577489355940072 0.16989765924999997
                  CHANNELS 3 Yrotation Xrotation Zrotation
                  JOINT rightThumbIntermediate
                  {
                    OFFSET -0.31036620999999986 -0.08229339117999834 0.15440884469999996
                    CHANNELS 3 Yrotation Xrotation Zrotation
                    JOINT rightThumbDistal
                    {
                      OFFSET -0.21631306399999906 -0.08825326400000111 0.018656797720000014
                      CHANNELS 3 Yrotation Xrotation Zrotation
                      End Site
                      {
                        OFFSET -0.21631306399999906 -0.08825326400000111 0.018656797720000014
                      }
                    }
                  }
                }
              }
            }
          }
        }
      }
    }
  }
}
MOTION
Frames: 4
Frame Time: 0.03333333333333333
0.014942486770451069 -0.08926425688476591 0.009001309983432293 -5.277598794986159 -3.737446470085451 -3.363910132340765 15.122982163346894 -10.390826082973025 7.364217596601722 2.133298624407376 12.126014278659616 4.588724935435231 0.41653819819491583 1.2906200237543048 -7.107163416106784 -9.123870271735862e-7 -4.922202206690489 0.0000012907046044212635 -10.338732765268652 0.6543980032258045 3.5326621114289005 -9.883357682653386 7.217150476818015 -4.404261406664017 -1.622071945709301 -3.6378349208633667 3.331185392412007 0.0000013303277027118953 -7.282877815411172 0.0000017014452389692527 1.5778245662507284 3.2853808560611895 2.8105102167745213 0.7686398208237415 2.266542002009424 3.12363921475467 0 0 0 -17.601418115408737 1.0179176855186178 -12.413997676803762 -20.71782942500743 3.227161519353474 -70.88993826423031 -1.4592408007667734 0.00024522099799485536 0.018851065753534575 -1.7268591143864056 -33.22265226616587 -5.222254483602546 -1.0672879779931526 0.013471689485751918 -7.580729834162066 1.5325796841173753 0.23449212120142804 -17.39898542707698 0.7174206470541944 0.05046265473640113 -8.047194072685494 2.4653767426373907 -0.1031933085247968 -15.733192125549106 1.5343334678943106 0.23505356212840736 -17.419507283989716 1.6201185721074056 0.2627824177565274 -18.427208216213387 5.21871058941099 0.8454768883453506 -27.11290141739759 1.5343616173193975 0.2350540957414267 -17.41986808602456 1.4573449066479869 0.21154882154984567 -16.519865888447157 3.3747185109675737 0.0881323401729917 -21.17065177613147 1.83054690317033 0.3380258617961532 -20.924772326123247 1.5735126142601044 0.24751060363368355 -17.878959443094377 2.222711487809992 -0.6645021764519481 4.778487592109551 26.12531547119438 10.712334329282681 21.928893881786134 3.76286278166644 -13.795786826495386 8.091006390581583 -0.0790192744895212 5.626444335777194 0.4447580449860168 1.381266033999675 -7.5608176107986855 -0.2838819629279243 0 0 0 0 0 0 0 0 0 15.534333965879847 1.1648141448541534 14.83193713019211 28.7969928845683 11.307944678736236 64.73355769062077 6.693162321484394 0.005039546112725116 -0.08626510828438767 -0.45459592844235763 -20.183618587242893 6.945672743584354 1.3505272681825349 0.037085525209240994 6.808022520742167 -1.1745299216187979 0.17992756882994573 17.41917925459242 -0.5501138234327753 0.038741659682626925 8.060543437917781 -2.0134109683679786 -0.16088909261803058 15.030857924413105 -1.1764481573120253 0.18053211026347424 17.448551428700966 -1.2422426836924396 0.20185290470964184 18.4585490680933 -4.555312336988575 0.6712548641860252 26.47498145116267 -1.176510149860017 0.18054679791114808 17.449400369138477 -1.1174396313523653 0.16249364651358153 16.54778125561194 -2.8169563710696397 -0.015180627548967738 20.487459148797598 -1.4035657125291625 0.2596532514611936 20.96070410950091 -1.20651799383893 0.190128402837726 17.909329612587346 -0.22900960845065715 -1.6672299178570678 -4.2097641232874965 -30.656070728586844 11.049589761494781 -22.208989932099986 -3.859196623353574 -15.529426201178596 -11.634551083721385
0.015045259147882462 -0.0892461370727542 0.00870183203369379 -5.28256832409998 -3.7374417643223294 -3.36438428025544 15.12308027323579 -10.389967623573419 7.364590320694171 2.1385379151817663 12.117676543425821 4.589513308931923 0.41634326514622866 1.2918448596299004 -7.111696977048503 -0.000003440403562004527 -4.922202206690489 0.000001765230659029368 -10.339366462727549 0.6527830920252163 3.537749986851023 -9.883277378997333 7.212974903719064 -4.410577719525895 -1.6224626128913937 -3.6326506213245024 3.3325823885350174 -0.00000469355047194475 -7.2828812582815745 9.20393468022987e-7 1.5778612181555718 3.2853699525269926 2.811053090031551 0.7684093509400062 2.2501686338262354 3.1234667112427155 0 0 0 -17.629000428253587 1.0168226549164165 -12.426052333161184 -20.916463910618205 3.34606002481016 -70.80035572268092 -1.5722053610459028 0.0002704755588767798 0.020310401620228968 -1.7753165680087106 -33.36725913504322 -5.19446879821154 -1.1333428342499705 0.010448642857062948 -7.364534948348654 1.53257659026912 0.23448006154768133 -17.398974629274605 0.7174163251621746 0.05045298974817344 -8.047212303466548 2.431596830199591 -0.10653103546360046 -15.483587625672632 1.5346201896808007 0.2351251729957809 -17.422873503109123 1.620402524341674 0.2628828172576064 -18.43054042981314 5.175562227550274 0.8159719586675618 -26.955769680988812 1.5354122294557682 0.23538893791506543 -17.432071273804755 1.4583857019577988 0.21185931713212672 -16.5320664566055 3.3074178453222345 0.06635727030249032 -20.934988467240107 1.830704669189416 0.33809411151498797 -20.92666780182911 1.5737860155893637 0.2475959017531902 -17.882157907166373 2.091521060991664 -0.7835034121756015 4.751038808529871 26.033109765917064 10.680732617135957 21.92124289554896 3.7587023844018685 -13.796810141990946 8.090968299293344 -0.07901820210702742 5.626444764730605 0.44475788413333756 1.3815176873580821 -7.530204287650414 -0.27507685690440586 0 0 0 0 0 0 0 0 0 15.531135488552811 1.1672913484691738 14.825860539921921 29.135014748100573 11.439038459305255 64.58842936580054 6.866035711808308 0.00532321949484071 -0.08846358474445314 -0.5578849884566611 -20.34017241129419 7.018967075585146 1.3734248280664187 0.044149176560144 6.672546289682354 -1.174528427821443 0.17994198967155184 17.419202479506588 -0.5501123827558357 0.03875678081777291 8.060548509951357 -1.9695553857424084 -0.16731341881360506 14.815105274391382 -1.176451144904763 0.18054785179322505 17.448532485843714 -1.2422469515837888 0.20185700018051717 18.458563107054804 -4.495220985230361 0.6323949223175098 26.225736363731773 -1.1738193776935317 0.17970102421335163 17.408243513114027 -1.114626905865974 0.1616806106251519 16.504599200165046 -2.814928418806954 -0.013114181766921695 20.315315610837434 -1.4007158687353332 0.25856798733746533 20.916138932268478 -1.203614638343486 0.18917994850226477 17.864811930164315 -0.1890959688705024 -1.687668199301686 -4.193024899377863 -30.620385459792974 11.038736218098531 -22.1918987604993 -3.8762631377206254 -15.526289348623827 -11.633580954538317
0.015277114696800709 -0.08925758116455107 0.007533502299338579 -5.316536179867915 -3.7374036904216372 -3.3645341527066437 15.123084123543839 -10.38987561492027 7.370235286750209 2.1759966726202142 12.103376903494631 4.591477477846182 0.4158575480082614 1.293835939742569 -7.125412083195342 9.138337006268036e-8 -4.922195351219214 -0.0000012852589533435018 -10.338718985903983 0.6378674140102775 3.548492692073161 -9.857402452804445 7.217506762044494 -4.420123236927523 -1.6226679042593033 -3.623610249413839 3.3306810162015523 1.9630923937083431e-7 -7.288177284986516 -0.000001721312090034384 1.5779230882777266 3.2853537041233114 2.8116412332372285 0.7679042442339777 2.214240188255253 3.1230876308570097 0 0 0 -17.670453685808102 1.017506208433261 -12.432852620082288 -21.47126365466018 3.682056672547835 -70.59346739929845 -1.9555921364951874 0.0004271765558856846 0.02523800225923034 -1.9871104607629733 -33.87789491360473 -5.1409073575461814 -1.4029147157661743 -0.01036761356684811 -6.618454130482036 1.5325788306419952 0.23451306551161025 -17.398989707146903 0.7174109894930032 0.0504352239123287 -8.047198299520174 2.2206102468215514 -0.1442344843416233 -14.743186680710078 1.5361087868066405 0.23559531275676598 -17.440322314563183 1.6218990088698841 0.26337488955161337 -18.448198841847468 4.979858391280873 0.684789778380177 -26.386009188496175 1.5373047793635857 0.23597519188513855 -17.454376795413964 1.4603096277907044 0.21242777419453562 -16.554363913482767 3.0398806651451022 -0.01913871734870948 -20.194682870715987 1.8328342646553266 0.33890222237402745 -20.95210178132615 1.5765187101597904 0.24848551554843154 -17.914236179966693 1.4692511088981954 -1.3931088783567056 4.563628337368744 25.32263349637699 10.438387903541658 21.859836424728034 3.70482259996988 -13.8109937219471 8.100907998679181 -0.07901656002133374 5.626443048916962 0.4447565705031231 1.3819275046569646 -7.470900885620693 -0.26400508405963535 0 0 0 0 0 0 0 0 0 15.565847915106371 1.1728572989580652 14.781004668625677 29.685765359711105 11.543167851708844 64.17408909555515 7.403647549940264 0.006185831453592842 -0.09536821981046777 -0.8107909835939267 -20.819168727062927 7.357950561804661 1.3773346316812995 0.05634826265303443 6.496034433067652 -1.177027320440203 0.1807289327474575 17.45744663953388 -0.55269937435798 0.0391156793270812 8.098757042255809 -1.9164126248817688 -0.17345640072444116 14.505004666021424 -1.1764390878340332 0.18053960750052334 17.448557339675627 -1.24225527397188 0.20185533264351568 18.45855662821876 -4.3727509555536175 0.5551304958613777 25.922546380905015 -1.172537779833054 0.1793147697840216 17.388817995070163 -1.1129944085602015 0.16118415261951455 16.479920052507847 -2.8283654437813217 -0.005379830774306412 20.14351846726297 -1.3964513464131243 0.2569224553864933 20.84936973833859 -1.1992506788769313 0.18777336214987125 17.797999640216815 -0.0688978740198933 -1.7511423019052401 -4.1296201244134 -30.611242923744218 11.031987859821387 -22.18617547696491 -3.872174992155923 -15.52703722665233 -11.633820905831255
0.015554037876427174 -0.08938728087158232 0.0053174556232988834 -5.384063599498631 -3.7373279704218016 -3.361841939324929 15.122498829320664 -10.390609948887885 7.381242150508746 2.245108801008136 12.095988997888373 4.594037856464137 0.41586598737434227 1.3017774315035329 -7.132202295721669 -0.000008357974813529952 -4.9221902096158034 9.822760154089497e-7 -10.32618477475008 0.6028120275963991 3.5525706666512757 -9.816920251707282 7.247322979035788 -4.422438326584771 -1.6219789553653727 -3.620024923255344 3.3241030756309757 8.987251127258197e-16 -7.298906385243483 -5.732182100465652e-17 1.5746599961753212 3.285428532300353 2.8096794186474323 0.7581804553591804 2.176701446710684 3.114820909016112 0 0 0 -17.703417463924897 1.0194617657578702 -12.426999099179305 -22.117547093539272 4.091186383254371 -70.33062027646477 -2.5739958102821485 0.0007458920714837504 0.03324516759631608 -2.4504629873765897 -34.55619453427729 -5.131064860912296 -1.8296569032076322 -0.04479289540289358 -5.58471258121925 1.532584591600796 0.23448731868444803 -17.398960572605553 0.7174212873344928 0.050453803501495524 -8.047216530301103 1.800753445049678 -0.22297901187889785 -13.831363415855472 1.5379183515633283 0.23617860518303246 -17.461463937120914 1.623877967443195 0.26403769172556296 -18.471528663886915 4.665773059085624 0.48390907431126035 -25.538066008303414 1.5387461155516635 0.236428923072853 -17.471274540895223 1.46176568017444 0.21287115257491254 -16.571281704235005 2.6421091438524336 -0.13596283371753673 -19.181224543036066 1.8365582804128162 0.34032535464019603 -20.996702677331836 1.581263311659401 0.25000826193523884 -17.97009792978494 0.4817555729271707 -2.390141784903442 4.308363949427002 24.039497807171127 10.004008828983947 21.758719565730843 3.5891153523505124 -13.843664166366231 8.122061124874218 -0.07901706940301831 5.626444335777194 0.4447562219889845 1.3691182017269607 -7.421424969700628 -0.25456033492146835 0 0 0 0 0 0 0 0 0 15.662956213854459 1.187805565051841 14.696587213235869 29.970063644575067 11.372867012563248 63.5864234147249 8.293895022031334 0.0077354402213001905 -0.10676174071106947 -0.9445206438127299 -21.475722625751512 7.797100320934119 1.3617082712530908 0.06991506099451404 6.328858433329837 -1.182888157824145 0.18256867745871724 17.547167975217373 -0.5587842637211773 0.040005144925838364 8.188412712480856 -1.868591386175269 -0.1774812152896729 14.181741181662263 -1.1764494377089136 0.18054583741102734 17.448530856858216 -1.2422474850702065 0.20185563947032395 18.458547448384174 -4.2381250015371945 0.472015646933555 25.619066447696785 -1.1752207628010698 0.18015136535184462 17.429837319541644 -1.1152800807435943 0.1618592768129786 16.514594364970755 -2.8613625342505387 0.008501446111165066 20.022318096342143 -1.3927162155508022 0.2555072046957807 20.79128434647084 -1.1954509094978794 0.18656415875076354 17.739640448050462 0.07807605821438644 -1.8269196392645548 -4.0857433683370905 -30.694788018600228 11.05296934301374 -22.209966474423187 -3.852587544400066 -15.530657916218017 -11.634924756395906
